<svg width="16" height="15" viewBox="0 0 16 15" fill="none" xmlns="http://www.w3.org/2000/svg">
<path d="M5.11014 15C3.80459 15 2.49117 14.5045 1.49234 13.5057C-0.497447 11.508 -0.497447 8.26774 1.49234 6.27795C1.72042 6.04987 2.09793 6.04987 2.32601 6.27795C2.55409 6.50603 2.55409 6.88354 2.32601 7.11162C0.792377 8.64525 0.792377 11.1384 2.32601 12.672C3.85964 14.2057 6.35278 14.2057 7.88642 12.672C8.62571 11.9327 9.03467 10.9418 9.03467 9.88789C9.03467 8.84187 8.62571 7.85091 7.88642 7.10376C7.65834 6.87568 7.65834 6.49817 7.88642 6.27009C8.1145 6.04201 8.49201 6.04201 8.72008 6.27009C9.68745 7.23746 10.2144 8.51942 10.2144 9.88789C10.2144 11.2564 9.67959 12.5383 8.72008 13.5057C7.72912 14.5045 6.42357 15 5.11014 15Z" fill="#292D32"/>
<path d="M13.0379 9.22733C12.8885 9.22733 12.7391 9.17228 12.6211 9.05431C12.393 8.82623 12.393 8.44872 12.6211 8.22064C14.2334 6.60836 14.2334 3.98941 12.6211 2.38499C11.0088 0.772715 8.38986 0.772715 6.78544 2.38499C6.00683 3.16361 5.57425 4.20176 5.57425 5.30283C5.57425 6.40387 6.00683 7.44203 6.78544 8.22064C7.01352 8.44872 7.01352 8.82623 6.78544 9.05431C6.55736 9.28238 6.17985 9.28238 5.95177 9.05431C4.95293 8.05548 4.39453 6.71847 4.39453 5.30283C4.39453 3.88717 4.94507 2.55016 5.95177 1.55133C8.02021 -0.517109 11.3863 -0.517109 13.4626 1.55133C15.5311 3.61977 15.5311 6.99373 13.4626 9.06217C13.3447 9.17228 13.1874 9.22733 13.0379 9.22733Z" fill="#292D32"/>
</svg>
